<svg width="40" height="40" viewBox="0 0 40 40" fill="none" xmlns="http://www.w3.org/2000/svg">
<g opacity="0.5">
<path fill-rule="evenodd" clip-rule="evenodd" d="M17.7398 30.0525C17.7398 29.8019 17.7309 29.1387 17.7259 28.2578C14.8638 28.8951 14.2599 26.8433 14.2599 26.8433C13.7919 25.6244 13.1173 25.2999 13.1173 25.2999C12.183 24.6451 13.188 24.6587 13.188 24.6587C14.2208 24.7332 14.764 25.7462 14.764 25.7462C15.6818 27.3582 17.1719 26.8932 17.7587 26.6231C17.8522 25.9411 18.1182 25.4761 18.4119 25.2125C16.1272 24.9463 13.7249 24.0408 13.7249 19.9981C13.7249 18.8465 14.126 17.9048 14.7842 17.1671C14.6787 16.9003 14.325 15.8277 14.8853 14.375C14.8853 14.375 15.7494 14.0913 17.7145 15.4566C18.5351 15.2228 19.4156 15.1049 20.2911 15.101C21.1647 15.1049 22.0446 15.2228 22.867 15.4566C24.8309 14.0913 25.6937 14.375 25.6937 14.375C26.2553 15.8271 25.9022 16.8996 25.796 17.1671C26.4555 17.9048 26.8535 18.8465 26.8535 19.9981C26.8535 24.0512 24.4474 24.943 22.1551 25.2041C22.5253 25.5298 22.8538 26.1736 22.8538 27.1581C22.8538 28.5687 22.8405 29.7067 22.8405 30.0525C22.8405 30.3349 23.0262 30.6626 23.5486 30.5596C27.6336 29.162 30.579 25.2099 30.579 20.5505C30.579 14.7235 25.9716 10 20.2892 10C14.6074 10 10 14.7235 10 20.5505C10.0006 25.2112 12.9486 29.1659 17.0374 30.5609C17.5516 30.6574 17.7398 30.3317 17.7398 30.0525Z" fill="white"/>
</g>
</svg>
