<svg width="32" height="37" viewBox="0 0 32 37" fill="none" xmlns="http://www.w3.org/2000/svg">
<path d="M28.1844 11.4191C27.6504 11.4191 27.1419 11.5283 26.6801 11.7243C26.1187 10.335 24.7416 9.35013 23.1347 9.35013C22.5378 9.35013 21.9725 9.48617 21.4689 9.7281C20.8317 8.52504 19.5546 7.70121 18.0853 7.70121C17.6534 7.70121 17.2386 7.77334 16.8511 7.90452V3.7624C16.8513 1.68792 15.1396 0 13.0354 0C10.9315 0 9.21997 1.68792 9.21997 3.7624V18.6674L6.47185 15.5885C6.45264 15.5675 6.43305 15.5468 6.4127 15.527C5.69113 14.8199 4.73078 14.4278 3.7086 14.423C3.70198 14.423 3.69575 14.423 3.68913 14.423C2.66937 14.423 1.71462 14.8085 0.999027 15.5098C-0.2627 16.7457 -0.332541 18.5803 0.807949 20.5438C2.28429 23.0839 3.88912 25.4791 5.30516 27.5926C6.33993 29.1371 7.31746 30.5959 8.03203 31.8021C8.6517 32.8488 10.2966 36.2434 10.3134 36.2777C10.5269 36.7188 10.9809 37 11.4791 37H27.797C28.3577 37 28.854 36.6458 29.0258 36.1236C29.3301 35.1968 32 26.9798 32 23.8064V15.1819C31.9997 13.1069 30.2883 11.4191 28.1844 11.4191ZM26.9504 15.1818C26.9504 14.5006 27.5041 13.9465 28.1844 13.9465C28.8651 13.9465 29.4188 14.5006 29.4188 15.1818V23.8062C29.4188 25.9151 28.9133 31.8697 28 34.7576L12.2929 34.4724C11.7578 33.3821 10.755 31.3624 10.2645 30.5341C9.51435 29.2674 8.51786 27.7803 7.46299 26.2058C6.06794 24.124 4.48703 21.7643 3.05102 19.2939C2.67624 18.6484 2.33276 17.7783 2.82457 17.2966C3.05394 17.0715 3.36282 16.9539 3.69613 16.9504C4.02142 16.952 2.05126 16.6009 2.28571 16.8182L1.14286 19.0606C1.49652 19.4571 3.82692 29.4806 6.85714 25.7879C8.57143 40.3636 28.5714 36.4053 28.5714 35.8788L30.8571 26.9091C30.8571 26.228 29.605 13.4545 30.2857 13.4545C15.5302 8.04322 15.5608 9.97044 15.5608 10.6515L14.2703 15.5614C14.2703 16.2593 14.8483 16.8251 15.5608 16.8251C16.2733 16.8251 16.8513 16.2593 16.8513 15.5614V11.4632C16.8513 10.7825 17.4049 10.2288 18.0854 10.2288C18.7661 10.2288 19.3198 10.7825 19.3198 11.4632V17.2097C19.3198 17.9079 19.8976 18.4735 20.6101 18.4735C21.3228 18.4735 21.9007 17.9081 21.9007 17.2097V13.1125C21.9007 12.4315 22.4544 11.8775 23.1348 11.8775C23.8157 11.8775 24.3696 12.4315 24.3696 13.1125V18.8593C24.3696 19.5571 24.9474 20.1232 25.6601 20.1232C26.3729 20.1232 26.9507 19.5571 26.9507 18.8593L26.9504 15.1818Z" fill="white"/>
<path d="M28.1844 11.4191C27.6504 11.4191 27.1419 11.5283 26.6801 11.7243C26.1187 10.335 24.7416 9.35013 23.1347 9.35013C22.5378 9.35013 21.9725 9.48617 21.4689 9.7281C20.8317 8.52504 19.5546 7.70121 18.0853 7.70121C17.6534 7.70121 17.2386 7.77334 16.8511 7.90452V3.7624C16.8513 1.68792 15.1396 0 13.0354 0C10.9315 0 9.21997 1.68792 9.21997 3.7624V18.6674L6.47185 15.5885C6.45264 15.5675 6.43305 15.5468 6.4127 15.527C5.69113 14.8199 4.73078 14.4278 3.7086 14.423C3.70198 14.423 3.69575 14.423 3.68913 14.423C2.66937 14.423 1.71462 14.8085 0.999027 15.5098C-0.2627 16.7457 -0.332541 18.5803 0.807949 20.5438C2.28429 23.0839 3.88912 25.4791 5.30516 27.5926C6.33993 29.1371 7.31745 30.5959 8.03203 31.8021C8.65169 32.8488 10.2966 36.2434 10.3134 36.2777C10.5269 36.7188 10.9809 37 11.4791 37H27.797C28.3577 37 28.8539 36.6458 29.0258 36.1236C29.3301 35.1968 32 26.9798 32 23.8064V15.1819C31.9997 13.1069 30.2883 11.4191 28.1844 11.4191ZM26.9504 15.1818C26.9504 14.5006 27.5041 13.9465 28.1844 13.9465C28.8651 13.9465 29.4188 14.5006 29.4188 15.1818V23.8062C29.4188 25.9151 27.7637 31.5846 26.8504 34.4724H12.2929C11.7578 33.3821 10.755 31.3624 10.2645 30.5341C9.51435 29.2674 8.51786 27.7803 7.46299 26.2058C6.06794 24.124 4.48703 21.7643 3.05102 19.2939C2.67624 18.6484 2.33276 17.7783 2.82457 17.2966C3.05394 17.0715 3.36282 16.9539 3.69613 16.9504C4.02142 16.952 4.32737 17.0721 4.56183 17.2894L9.53902 22.8649C9.89268 23.2615 10.4611 23.4014 10.9641 23.2164C11.4676 23.0312 11.801 22.5597 11.801 22.0332V3.7624C11.801 3.08133 12.3548 2.52745 13.0356 2.52745C13.7164 2.52745 14.2703 3.08133 14.2703 3.7624V15.5614C14.2703 16.2593 14.8482 16.8251 15.5608 16.8251C16.2733 16.8251 16.8513 16.2593 16.8513 15.5614V11.4632C16.8513 10.7825 17.4049 10.2288 18.0854 10.2288C18.7661 10.2288 19.3198 10.7825 19.3198 11.4632V17.2097C19.3198 17.9079 19.8976 18.4735 20.6101 18.4735C21.3228 18.4735 21.9007 17.9081 21.9007 17.2097V13.1125C21.9007 12.4315 22.4544 11.8775 23.1348 11.8775C23.8157 11.8775 24.3696 12.4315 24.3696 13.1125V18.8593C24.3696 19.5571 24.9474 20.1232 25.6601 20.1232C26.3729 20.1232 26.9507 19.5571 26.9507 18.8593L26.9504 15.1818Z" fill="black"/>
</svg>
