<svg width="40" height="40" viewBox="0 0 40 40" fill="none" xmlns="http://www.w3.org/2000/svg">
<g opacity="0.5">
<path fill-rule="evenodd" clip-rule="evenodd" d="M30.5333 29.6524C30.5509 29.5569 30.5638 29.4598 30.5788 29.364V12.1502C30.5644 12.0559 30.5521 11.9613 30.5344 11.8673C30.3543 10.9031 29.5936 10.1548 28.6596 10.0212C28.6208 10.016 28.5829 10.0071 28.5447 10H12.0341C11.9345 10.0187 11.8343 10.0329 11.7362 10.0562C10.8245 10.2734 10.1498 11.041 10.02 12.0067C10.0147 12.047 10.0068 12.0869 10 12.1272V29.388C10.0188 29.4973 10.0338 29.6076 10.0573 29.7163C10.2589 30.6483 11.0198 31.3708 11.9251 31.4924C11.9689 31.4979 12.013 31.5068 12.0567 31.5142H28.5221C28.629 31.4952 28.7363 31.4795 28.842 31.4555C29.6824 31.2691 30.369 30.5362 30.5333 29.6524ZM12.2266 28.3328C12.2266 28.7908 12.6059 29.1846 13.044 29.1846C17.8732 29.1849 22.7021 29.1849 27.5313 29.1846C27.9735 29.1846 28.3508 28.7914 28.3508 28.3301C28.3511 25.1499 28.3508 21.9701 28.3508 18.7903V18.7242H26.3863C26.6637 19.651 26.7489 20.5937 26.6402 21.5545C26.5309 22.5156 26.2347 23.4101 25.7522 24.2361C25.2695 25.063 24.6437 25.748 23.8774 26.2932C21.8912 27.7074 19.2762 27.8318 17.1686 26.5952C16.1032 25.9707 15.2667 25.0999 14.6835 23.9778C13.8135 22.3034 13.6745 20.5461 14.1849 18.7227C13.5332 18.7233 12.8841 18.7233 12.2263 18.7233V18.7814C12.2263 21.9652 12.226 25.149 12.2266 28.3328ZM20.1938 25.1143C22.5237 25.1665 24.4083 23.2203 24.4574 20.8532C24.5076 18.4122 22.6242 16.3959 20.2895 16.3974C18.0072 16.3959 16.1517 18.3157 16.1197 20.6911C16.0868 23.1303 17.9546 25.0639 20.1938 25.1143ZM28.3505 14.6598C28.3508 13.9806 28.3508 13.3012 28.3505 12.622C28.3505 12.1348 27.9817 11.7472 27.5163 11.7469C26.8685 11.7466 26.2206 11.7463 25.5724 11.7469C25.1082 11.7475 24.7383 12.1361 24.738 12.6232C24.7377 13.2966 24.7359 13.9699 24.7403 14.6435C24.7409 14.7439 24.7591 14.8484 24.7897 14.9436C24.906 15.3021 25.2201 15.522 25.6047 15.5238C25.9174 15.5245 26.23 15.5235 26.5429 15.5235C26.8814 15.5195 27.221 15.5263 27.5598 15.5177C27.9955 15.5063 28.3505 15.1159 28.3505 14.6598Z" fill="white"/>
</g>
</svg>
