<svg width="48" height="48" viewBox="0 0 48 48" fill="none" xmlns="http://www.w3.org/2000/svg">
<path d="M29.3987 12.5995C29.0323 12.9733 28.827 13.476 28.827 13.9995C28.827 14.523 29.0323 15.0256 29.3987 15.3995L32.5987 18.5995C32.9726 18.9659 33.4752 19.1712 33.9987 19.1712C34.5222 19.1712 35.0249 18.9659 35.3987 18.5995L42.9387 11.0595C43.9444 13.2818 44.2489 15.7579 43.8116 18.1578C43.3744 20.5576 42.2162 22.7672 40.4913 24.492C38.7664 26.2169 36.5568 27.3751 34.157 27.8124C31.7572 28.2496 29.2811 27.9451 27.0587 26.9395L13.2387 40.7595C12.4431 41.5551 11.364 42.0021 10.2387 42.0021C9.11352 42.0021 8.03438 41.5551 7.23873 40.7595C6.44308 39.9638 5.99609 38.8847 5.99609 37.7595C5.99609 36.6342 6.44308 35.5551 7.23873 34.7595L21.0587 20.9395C20.0531 18.7171 19.7486 16.241 20.1858 13.8412C20.6231 11.4414 21.7813 9.23178 23.5062 7.50691C25.231 5.78205 27.4406 4.62381 29.8404 4.18656C32.2403 3.7493 34.7164 4.0538 36.9387 5.05947L29.4187 12.5795L29.3987 12.5995Z" stroke="#DA1639" stroke-width="2" stroke-linecap="round" stroke-linejoin="round"/>
</svg>
