<svg width="40" height="40" viewBox="0 0 40 40" fill="none" xmlns="http://www.w3.org/2000/svg">
<g opacity="0.5">
<path fill-rule="evenodd" clip-rule="evenodd" d="M19.9922 15.8391L20.0368 16.6078L19.2933 16.5137C16.5871 16.1529 14.2229 14.9292 12.2155 12.8741L11.2342 11.8544L10.9814 12.6074C10.4461 14.286 10.7881 16.0588 11.9033 17.251C12.498 17.9099 12.3642 18.0041 11.3382 17.6119C10.9814 17.4864 10.6691 17.3922 10.6394 17.4393C10.5353 17.5491 10.8922 18.9767 11.1747 19.5415C11.5613 20.3259 12.3494 21.0946 13.2118 21.5496L13.9404 21.9104L13.0779 21.9261C12.2453 21.9261 12.2155 21.9418 12.3047 22.2712C12.6021 23.2909 13.7768 24.3734 15.0853 24.8441L16.0072 25.1735L15.2043 25.6755C14.0147 26.3972 12.617 26.8051 11.2193 26.8364C10.5502 26.8521 10 26.9149 10 26.962C10 27.1188 11.8141 27.9974 12.8698 28.3425C16.0369 29.3622 19.7989 28.923 22.6241 27.1816C24.6314 25.9422 26.6388 23.4792 27.5755 21.0946C28.0811 19.8239 28.5866 17.5021 28.5866 16.3882C28.5866 15.6665 28.6313 15.5724 29.4639 14.7096C29.9546 14.2076 30.4156 13.6585 30.5048 13.5016C30.6535 13.2035 30.6386 13.2035 29.8803 13.4702C28.6164 13.9409 28.438 13.8781 29.0625 13.1721C29.5234 12.6701 30.0736 11.7602 30.0736 11.4935C30.0736 11.4465 29.8505 11.5249 29.5978 11.6661C29.3301 11.823 28.7353 12.0583 28.2893 12.1995L27.4863 12.4662L26.7577 11.9485C26.3563 11.6661 25.7912 11.3523 25.4938 11.2582C24.7355 11.0386 23.5757 11.0699 22.8917 11.321C21.033 12.0269 19.8584 13.8467 19.9922 15.8391Z" fill="white"/>
</g>
</svg>
