<svg width="40" height="40" viewBox="0 0 40 40" fill="none" xmlns="http://www.w3.org/2000/svg">
<path fill-rule="evenodd" clip-rule="evenodd" d="M31.3044 25.5661C31.0252 26.7795 30.0326 27.6742 28.8383 27.8077C26.0092 28.1238 23.1459 28.1254 20.2949 28.1238C17.4441 28.1254 14.5805 28.1238 11.7517 27.8077C10.5571 27.6742 9.56507 26.7795 9.28612 25.5661C8.88889 23.8379 8.88889 21.9523 8.88889 20.1733C8.88889 18.3941 8.8936 16.5082 9.29057 14.78C9.56978 13.5666 10.5618 12.6717 11.7561 12.5385C14.5852 12.2223 17.4485 12.2208 20.2996 12.2223C23.1504 12.2208 26.014 12.2223 28.8427 12.5385C30.0373 12.6717 31.0299 13.5666 31.3088 14.78C31.7061 16.5082 31.7037 18.3941 31.7037 20.1733C31.7037 21.9523 31.7014 23.8379 31.3044 25.5661ZM18.2429 15.9638L24.5568 19.6091L18.2429 23.2545V15.9638Z" fill="white"/>
</svg>
