<svg width="32" height="32" viewBox="0 0 32 32" fill="none" xmlns="http://www.w3.org/2000/svg">
<path d="M22.0877 2.74097H8.92431C7.23506 2.74097 5.83267 4.11148 5.83267 5.80073V26.9003C5.83267 28.5896 7.20319 29.9601 8.92431 29.9601H22.0877C23.7769 29.9601 25.1793 28.5896 25.1793 26.9003V5.80073C25.1793 4.11148 23.8088 2.74097 22.0877 2.74097ZM24.2231 26.9003C24.2231 28.0796 23.2669 29.0039 22.0877 29.0039H8.92431C7.74502 29.0039 6.78885 28.0477 6.78885 26.9003V5.80073C6.78885 4.62144 7.74502 3.69714 8.92431 3.69714H22.0877C23.2669 3.69714 24.2231 4.65332 24.2231 5.80073V26.9003Z" fill="#AA0026"/>
<path d="M19.4104 5.7688H11.5379C11.2829 5.7688 11.0598 5.99191 11.0598 6.24689C11.0598 6.50187 11.2829 6.72497 11.5379 6.72497H19.4104C19.6653 6.72497 19.8884 6.50187 19.8884 6.24689C19.8884 5.99191 19.6653 5.7688 19.4104 5.7688Z" fill="#AA0026"/>
<path d="M15.49 24.0317C14.5976 24.0317 13.8964 24.7648 13.8964 25.6254C13.8964 26.0397 14.0558 26.4541 14.3745 26.7409C14.6614 27.0278 15.0757 27.1871 15.49 27.1871C16.3825 27.1871 17.0837 26.4541 17.0837 25.5935C17.0837 24.7329 16.3825 24.0317 15.49 24.0317ZM15.5219 26.2628C15.3626 26.2628 15.2032 26.1991 15.0757 26.0716C14.9482 25.9441 14.8845 25.7847 14.8845 25.6254C14.8845 25.2748 15.1713 24.9879 15.5219 24.9879C15.8725 24.9879 16.1594 25.2748 16.1594 25.6254C16.1594 25.976 15.8725 26.2628 15.5219 26.2628Z" fill="#AA0026"/>
</svg>
