<svg width="270" height="140" viewBox="0 0 270 140" fill="none" xmlns="http://www.w3.org/2000/svg">
<g opacity="0.05">
<path d="M235.911 0H270L213.185 68.3251L270 139.756H235.911L182.195 68.3251L235.911 0Z" fill="black"/>
<path fill-rule="evenodd" clip-rule="evenodd" d="M138.162 70.8304C148.224 70.8304 156.382 62.673 156.382 52.6103C156.382 42.5476 148.224 34.3901 138.162 34.3901C128.099 34.3901 119.941 42.5476 119.941 52.6103C119.941 62.673 128.099 70.8304 138.162 70.8304ZM138.162 59.3231C141.869 59.3231 144.874 56.3177 144.874 52.6104C144.874 48.9031 141.869 45.8977 138.162 45.8977C134.454 45.8977 131.449 48.9031 131.449 52.6104C131.449 56.3177 134.454 59.3231 138.162 59.3231Z" fill="black"/>
<path d="M115.147 77.5431C116.681 74.4745 119.941 69.8715 127.613 66.9946C131.129 66.9946 147.17 68.7866 143.915 69.8715C129.531 74.6663 118.983 81.379 129.531 90.9685C138.162 95.7633 144.874 84.2558 149.669 77.5431L168.848 97.6812L161.177 104.394L150.628 91.9275C147.751 99.5991 136.244 106.312 122.818 99.5991C113.229 94.8043 113.229 81.379 115.147 77.5431Z" fill="black"/>
<path d="M0 24.6628V0H76.6221C86.1573 1.37016 105.228 11.5093 105.228 41.1047C105.228 70.7001 86.1573 82.2094 76.6221 84.2646L108.293 139.756H81.7302L51.0814 84.2646H0V60.6294H67.4274C72.8761 59.6018 83.7735 54.2582 83.7735 41.1047C83.7735 27.9512 72.8761 24.6628 67.4274 24.6628H0Z" fill="black"/>
</g>
</svg>
