<svg width="48" height="48" viewBox="0 0 48 48" fill="none" xmlns="http://www.w3.org/2000/svg">
<path d="M43.9989 33.8402V39.8402C44.0012 40.3972 43.8871 40.9485 43.6639 41.4589C43.4408 41.9692 43.1135 42.4274 42.703 42.8039C42.2926 43.1805 41.808 43.4672 41.2804 43.6456C40.7527 43.8241 40.1936 43.8903 39.6389 43.8402C33.4846 43.1715 27.5729 41.0685 22.3789 37.7002C17.5465 34.6295 13.4496 30.5325 10.3789 25.7002C6.99885 20.4826 4.89538 14.5422 4.23889 8.36019C4.18891 7.80713 4.25464 7.24971 4.43189 6.72344C4.60914 6.19717 4.89403 5.71357 5.26842 5.30344C5.64281 4.8933 6.0985 4.56561 6.60647 4.34124C7.11444 4.11686 7.66357 4.00072 8.21889 4.00019H14.2189C15.1895 3.99064 16.1305 4.33435 16.8664 4.96726C17.6024 5.60017 18.083 6.47909 18.2189 7.44019C18.4721 9.36033 18.9418 11.2456 19.6189 13.0602C19.888 13.776 19.9462 14.554 19.7867 15.302C19.6272 16.0499 19.2566 16.7364 18.7189 17.2802L16.1789 19.8202C19.026 24.8273 23.1718 28.9731 28.1789 31.8202L30.7189 29.2802C31.2627 28.7425 31.9492 28.3719 32.6971 28.2124C33.4451 28.0529 34.223 28.1111 34.9389 28.3802C36.7534 29.0573 38.6388 29.5269 40.5589 29.7802C41.5304 29.9173 42.4177 30.4066 43.052 31.1552C43.6862 31.9038 44.0232 32.8593 43.9989 33.8402Z" stroke="#DA1639" stroke-width="3" stroke-linecap="round" stroke-linejoin="round"/>
</svg>
