<svg width="48" height="48" viewBox="0 0 48 48" fill="none" xmlns="http://www.w3.org/2000/svg">
<path d="M31.0348 45.895H16.9648C15.1083 45.895 13.3279 45.1575 12.0151 43.8447C10.7023 42.532 9.96484 40.7515 9.96484 38.895V9.10498C9.96484 7.24847 10.7023 5.46799 12.0151 4.15523C13.3279 2.84248 15.1083 2.10498 16.9648 2.10498H31.0348C32.8914 2.10498 34.6718 2.84248 35.9846 4.15523C37.2974 5.46799 38.0348 7.24847 38.0348 9.10498V38.895C38.0348 40.7515 37.2974 42.532 35.9846 43.8447C34.6718 45.1575 32.8914 45.895 31.0348 45.895ZM16.9648 4.10498C15.6388 4.10498 14.367 4.63176 13.4293 5.56945C12.4916 6.50713 11.9648 7.7789 11.9648 9.10498V38.895C11.9648 40.2211 12.4916 41.4928 13.4293 42.4305C14.367 43.3682 15.6388 43.895 16.9648 43.895H31.0348C32.3609 43.895 33.6327 43.3682 34.5704 42.4305C35.5081 41.4928 36.0348 40.2211 36.0348 38.895V9.10498C36.0348 7.7789 35.5081 6.50713 34.5704 5.56945C33.6327 4.63176 32.3609 4.10498 31.0348 4.10498H16.9648Z" fill="#DA1639" stroke="#DA1639"/>
<path d="M30.2273 40.48H17.7773C17.5121 40.48 17.2578 40.3746 17.0702 40.1871C16.8827 39.9996 16.7773 39.7452 16.7773 39.48C16.7773 39.2148 16.8827 38.9604 17.0702 38.7729C17.2578 38.5853 17.5121 38.48 17.7773 38.48H30.2273C30.4926 38.48 30.7469 38.5853 30.9344 38.7729L31.288 38.4193L30.9344 38.7729C31.122 38.9604 31.2273 39.2148 31.2273 39.48C31.2273 39.7452 31.122 39.9996 30.9344 40.1871L31.288 40.5406L30.9344 40.1871C30.7469 40.3746 30.4926 40.48 30.2273 40.48Z" fill="#DA1639" stroke="#DA1639"/>
<path d="M29.9085 1.60499C30.1338 1.60603 30.356 1.65781 30.5585 1.75649C30.7611 1.85517 30.9388 1.99821 31.0785 2.17499L16.9185 2.15999M29.9085 1.60499H18.0885C17.8644 1.60423 17.643 1.65368 17.4405 1.74973C17.238 1.84577 17.0597 1.98596 16.9185 2.15999M29.9085 1.60499L29.9062 2.10498C29.9065 2.10499 29.9069 2.10499 29.9072 2.10499H29.9085V1.60499ZM16.9185 2.15999L17.3068 2.47499C17.3074 2.47427 17.3079 2.47356 17.3085 2.47284C17.3091 2.47212 17.3097 2.4714 17.3102 2.47068L16.9185 2.15999ZM20.3705 9.06999H20.3685V9.56999L20.3724 9.07C20.3717 9.07 20.3711 9.06999 20.3705 9.06999ZM30.8778 3.34619C30.8777 3.34641 30.8777 3.34662 30.8776 3.34683L31.3635 3.46499L30.8778 3.34602L30.8778 3.34619ZM20.0385 4.10499H19.4179L19.5499 4.71137L19.9549 6.57137L20.0393 6.95908L20.4361 6.96493L27.5461 7.06993L27.9417 7.07578L28.0383 6.69213L28.5333 4.72713L28.6901 4.10499H28.0485H20.0385Z" fill="#DA1639" stroke="#DA1639"/>
</svg>
