<svg width="48" height="48" viewBox="0 0 48 48" fill="none" xmlns="http://www.w3.org/2000/svg">
<path d="M24 32C28.4183 32 32 28.4183 32 24C32 19.5817 28.4183 16 24 16C19.5817 16 16 19.5817 16 24C16 28.4183 19.5817 32 24 32Z" stroke="#DA1639" stroke-width="3" stroke-linecap="round" stroke-linejoin="round"/>
<path d="M32 15.9997V25.9997C32 27.591 32.6322 29.1172 33.7574 30.2424C34.8826 31.3676 36.4087 31.9997 38 31.9997C39.5913 31.9997 41.1175 31.3676 42.2427 30.2424C43.3679 29.1172 44 27.591 44 25.9997V23.9997C43.9997 19.4858 42.4725 15.1047 39.6666 11.5688C36.8607 8.03291 32.9411 5.55019 28.5453 4.52433C24.1495 3.49847 19.5359 3.98982 15.4547 5.91847C11.3735 7.84712 8.06481 11.0996 6.06653 15.1472C4.06825 19.1947 3.49795 23.7992 4.44835 28.212C5.39876 32.6247 7.81397 36.5862 11.3013 39.4523C14.7886 42.3183 19.1429 43.9204 23.6562 43.998C28.1694 44.0756 32.5762 42.6242 36.16 39.8797" stroke="#DA1639" stroke-width="3" stroke-linecap="round" stroke-linejoin="round"/>
</svg>
