<svg width="20" height="20" viewBox="0 0 20 20" fill="none" xmlns="http://www.w3.org/2000/svg">
<path d="M2.4987 10.8333L15.487 10.8333L11.017 15.3035C10.6916 15.6287 10.6916 16.1566 11.0168 16.4818C11.3422 16.8073 11.8702 16.8073 12.1956 16.4818L18.0879 10.5893C18.1266 10.5506 18.1612 10.5079 18.1916 10.4625C18.2056 10.4414 18.2154 10.4187 18.2274 10.3968C18.2412 10.371 18.257 10.3464 18.2681 10.3191C18.2799 10.291 18.2866 10.2618 18.2949 10.2327C18.3018 10.2095 18.3108 10.1877 18.3156 10.1637C18.3264 10.1098 18.332 10.055 18.332 10.0002C18.332 9.99954 18.3318 9.99892 18.3318 9.99829C18.3316 9.94434 18.3262 9.89017 18.3156 9.83704C18.3106 9.81204 18.3012 9.78892 18.2939 9.76434C18.2858 9.73663 18.2795 9.7085 18.2683 9.68163C18.2562 9.65267 18.2399 9.62642 18.2249 9.59913C18.2137 9.57871 18.2047 9.55788 18.1918 9.5383C18.1614 9.49225 18.1264 9.44934 18.0874 9.41038L12.1954 3.5185C11.8699 3.19309 11.3422 3.19309 11.0168 3.51829C10.6914 3.84371 10.6914 4.37121 11.0168 4.69704L15.4868 9.16663L2.4987 9.16663C2.03849 9.16663 1.66536 9.53975 1.66536 9.99996C1.66536 10.4602 2.03849 10.8333 2.4987 10.8333Z" fill="white"/>
</svg>
