<svg width="32" height="32" viewBox="0 0 32 32" fill="none" xmlns="http://www.w3.org/2000/svg">
<path d="M15.9987 18.6668C17.4715 18.6668 18.6654 17.4729 18.6654 16.0002C18.6654 14.5274 17.4715 13.3335 15.9987 13.3335C14.5259 13.3335 13.332 14.5274 13.332 16.0002C13.332 17.4729 14.5259 18.6668 15.9987 18.6668Z" stroke="white" stroke-width="2" stroke-linecap="round" stroke-linejoin="round"/>
<path d="M21.6518 10.3466C22.3956 11.0896 22.9857 11.9719 23.3883 12.9431C23.7909 13.9142 23.9981 14.9553 23.9981 16.0066C23.9981 17.0579 23.7909 18.0989 23.3883 19.0701C22.9857 20.0413 22.3956 20.9236 21.6518 21.6666M10.3451 21.6532C9.60131 20.9103 9.01124 20.0279 8.60864 19.0568C8.20605 18.0856 7.99883 17.0446 7.99883 15.9932C7.99883 14.9419 8.20605 13.9009 8.60864 12.9297C9.01124 11.9585 9.60131 11.0762 10.3451 10.3332M25.4251 6.57324C27.9247 9.07361 29.3289 12.4644 29.3289 15.9999C29.3289 19.5354 27.9247 22.9262 25.4251 25.4266M6.57179 25.4266C4.07217 22.9262 2.66797 19.5354 2.66797 15.9999C2.66797 12.4644 4.07217 9.07361 6.57179 6.57324" stroke="white" stroke-width="2" stroke-linecap="round" stroke-linejoin="round"/>
</svg>
